<?xml version="1.0" encoding="UTF-8"?>
<svg width="258px" height="50px" viewBox="0 0 258 50" version="1.1" xmlns="http://www.w3.org/2000/svg" xmlns:xlink="http://www.w3.org/1999/xlink">
    <!-- Generator: Sketch 50.2 (55047) - http://www.bohemiancoding.com/sketch -->
    <title>CodeNiffler Wordmark</title>
    <desc>Created with Sketch.</desc>
    <defs></defs>
    <g id="Symbols" stroke="none" stroke-width="1" fill="none" fill-rule="evenodd">
        <g id="Header---Teal" transform="translate(-211.000000, -29.000000)" fill="#FFFFFF" fill-rule="nonzero">
            <g id="Header">
                <g id="Stacked-Group-2" transform="translate(150.000000, 29.000000)">
                    <g id="CodeNiffler-Wordmark" transform="translate(61.000000, 0.000000)">
                        <path d="M0,24.12 C0,13.5 5.60162791,7.28 13.7531008,7.28 C16.4548229,7.20506524 19.1263352,7.86172439 21.4829457,9.18 L22.0852713,12.6 C19.7861404,10.9684844 17.0166884,10.1261153 14.1948062,10.2 C7.28813953,10.2 3.15217054,15.74 3.15217054,23.64 C3.15217054,33 8.33217054,36.88 13.9739535,36.88 C16.9371094,36.9848031 19.856392,36.1439324 22.306124,34.48 L21.8844961,37.74 C19.3048779,39.1674724 16.3803438,39.8594539 13.4318605,39.74 C6.38465116,39.8 0,34.9 0,24.12 Z" id="Shape"></path>
                        <path d="M29.0923256,32.68 C29.0923256,25.28 33.4893023,21.04 39.3117829,21.04 C45.7365891,21.04 49.3505426,25.6 49.3505426,32.64 C49.3505426,39.68 45.3350388,44.38 39.0909302,44.38 C32.8468217,44.38 29.0923256,39.78 29.0923256,32.68 Z M46.3991473,32.68 C46.3991473,27 43.6886822,23.74 39.3318605,23.74 C34.9750388,23.74 32.124031,26.84 32.124031,32.64 C32.124031,38.44 35.0553488,41.66 39.2314729,41.66 C43.4075969,41.66 46.3991473,38.48 46.3991473,32.68 Z" id="Shape"></path>
                        <path d="M70.2713178,31.46 C68.4006635,32.9540146 66.0630128,33.746738 63.665814,33.7 C57.4618605,33.7 53.6270543,29.7 53.6270543,22.32 C53.6270543,14.94 58.024031,10.44 64.248062,10.44 C66.2889919,10.4218274 68.2958641,10.9613832 70.0504651,12 L70.0504651,0 L73.062093,0 L73.062093,33.34 L71.0543411,33.34 L70.2713178,31.46 Z M64.1075194,30.94 C66.3027382,31.0009896 68.4302074,30.1792376 70.0103101,28.66 L70.0103101,14.66 C68.3204671,13.6141754 66.3567839,13.0920843 64.3685271,13.16 C59.7506977,13.16 56.6386822,16.6 56.6386822,22.22 C56.6788372,27.58 59.529845,30.94 64.1476744,30.94 L64.1075194,30.94 Z" id="Shape"></path>
                        <path d="M90.7102326,38.34 C84.8877519,38.34 79.5872868,35.38 79.5872868,26.82 C79.5872868,18.82 84.425969,15.08 90.0275969,15.08 C96.4925581,15.08 99.5242636,19.76 99.5242636,27.08 L82.5989147,27.08 C82.7193798,33.78 86.8352713,35.72 91.0917054,35.72 C93.5552437,35.748311 95.9860965,35.1567025 98.1589922,34 L97.7373643,36.8 C95.5688156,37.9120387 93.147074,38.4427648 90.7102326,38.34 Z M82.6792248,24.64 L96.6130233,24.64 C95.9705426,19.92 93.8021705,17.72 89.9272093,17.72 C86.7348837,17.7 83.4622481,19.64 82.7193798,24.62 L82.6792248,24.64 Z" id="Shape"></path>
                        <path d="M140.361938,21.54 C140.361938,30.32 140.582791,37.14 140.582791,39.84 C140.582791,40.44 140.301705,41.26 139.418295,41.26 C138.804141,41.2367793 138.234495,40.934632 137.872326,40.44 C127.39186,28.44 119.46124,19.74 113.658837,13.36 C113.498217,15.88 113.337597,20.12 113.337597,24.12 C113.26463,27.9706477 113.391959,31.8224756 113.71907,35.66 C113.734826,37.1959598 114.632144,38.5872632 116.027984,39.24 C116.529922,39.4 116.750775,39.46 116.750775,39.68 C116.750775,39.9 116.529922,40 116.14845,40 L106.410853,40 C106.02938,40 105.748295,40 105.748295,39.62 C105.748295,39.24 105.86876,39.3 106.471085,39.18 C108.352659,38.8895493 109.852068,37.4598278 110.225581,35.6 C110.648813,31.788823 110.796428,27.9522664 110.667287,24.12 C110.667287,17.08 110.667287,15.34 110.667287,13.02 C110.667287,8.8 109.121318,7.48 106.370698,7.02 C105.828605,6.92 105.70814,6.74 105.70814,6.52 C105.70814,6.3 105.86876,6.14 106.59155,6.14 C108.900465,6.14 114.36155,5.76 114.743023,5.76 C115.124496,5.76 115.184729,6.04 115.184729,6.36 C115.287218,6.96503443 115.574698,7.52380511 116.007907,7.96 C122.633488,16.08 130.403488,24.76 137.450698,32.08 C137.450698,26.58 137.450698,23.74 137.450698,21.48 C137.450698,16.54 137.450698,11.92 137.229845,10.38 C137.187411,8.9374545 136.38675,7.62336359 135.121705,6.92 C134.740233,6.82 134.35876,6.76 134.35876,6.48 C134.35876,6.2 134.51938,6 134.84062,6 C136.266124,6 141.626822,6.1 144.538062,6.1 C144.872687,6.1 145.04,6.21333333 145.04,6.44 C145.04,6.72 144.658527,6.72 144.096357,6.88 C142.239063,7.24265241 140.814206,8.73417864 140.542636,10.6 C140.542636,11.58 140.361938,16.2 140.361938,21.54 Z" id="Shape"></path>
                        <path d="M155.56062,23.38 C155.901938,23.38 156.102713,23.66 156.102713,24.1 C156.102713,24.54 155.88186,26.58 155.88186,28.1 C155.71569,32.0426689 155.823025,35.9920624 156.203101,39.92 C156.484186,41.52 157.186899,43 158.732868,43.28 C159.274961,43.38 159.495814,43.44 159.495814,43.66 C159.495814,43.88 159.254884,44 158.612403,44 L148.573643,44 C147.911085,44 147.63,44 147.63,43.62 C147.63,43.24 147.850853,43.34 148.453178,43.24 C149.938915,42.96 150.46093,41.48 150.822326,39.88 C151.212073,35.9326476 151.32612,31.9630958 151.163643,28 C151.365034,26.3767928 150.281864,24.8714295 148.674031,24.54 C148.011473,24.44 147.79062,24.32 147.79062,24.1 C147.79062,23.88 148.131938,23.66 149.115736,23.66 C150.982946,23.66 154.737442,23.38 155.56062,23.38 Z M152.589147,12 C152.657124,11.8903204 152.781518,11.8283634 152.910388,11.84 C153.02734,11.8343681 153.136968,11.8967709 153.191473,12 C153.996005,13.0069175 154.919551,13.9134678 155.942093,14.7 C156.027798,14.7709677 156.084847,14.870417 156.102713,14.98 C156.102713,15.1 155.942093,15.26 155.88186,15.3 C154.904455,16.1165744 154.003923,17.0203244 153.191473,18 C153.143296,18.1175907 153.036481,18.2011924 152.910388,18.22 C152.749767,18.22 152.689535,18.1 152.589147,18 C151.791784,17.0200059 150.904543,16.1161039 149.938915,15.3 C149.81845,15.3 149.718062,15.14 149.718062,15.02 C149.718062,14.9 149.718062,14.8 149.938915,14.7 C150.930171,13.9117074 151.820272,13.0048918 152.589147,12 Z" id="Shape"></path>
                        <path d="M174.373256,47.22 C174.915349,47.32 175.136202,47.38 175.136202,47.6 C175.136202,47.82 174.915349,47.98 174.192558,47.98 L164.153798,47.98 C163.49124,47.98 163.210155,47.98 163.210155,47.6 C163.210155,47.22 163.431008,47.32 164.033333,47.22 C165.526712,46.8463395 166.591327,45.5329455 166.643411,44 C167.025894,39.3971302 167.139858,34.776026 166.984729,30.16 C166.984729,29.82 166.643411,29.82 164.976977,29.82 C164.374651,29.82 164.093566,29.54 164.093566,29.28 C164.093566,29.02 164.314419,28.84 164.756124,28.68 C166.402481,28.24 166.964651,27.14 166.964651,25.32 C166.964651,19.32 167.185504,16.36 168.570853,13.9 C170.275452,10.8364885 173.548576,8.97115098 177.063643,9.06 C179.211938,9.06 182.243643,9.82 182.243643,11.42 C182.243643,11.96 180.476822,14.78 179.653643,14.78 C179.151705,14.78 179.151705,14.28 178.890698,13.3 C178.684499,11.776281 177.455031,10.5929349 175.919225,10.44 C174.272868,10.44 172.827287,11.6 172.104496,14.62 C171.453393,18.8335922 171.231412,23.1019431 171.441938,27.36 C171.441938,27.7 173.148527,27.7 173.710698,27.7 C175.078696,27.8459285 176.46139,27.6393252 177.726202,27.1 C177.886822,27.1 177.947054,27.1 177.947054,27.32 C177.672413,28.449999 177.143803,29.5031357 176.401085,30.4 C175.343387,30.1038711 174.246767,29.9690088 173.148527,30 C171.763178,30 171.381705,30 171.381705,30.44 C171.174834,34.9512455 171.322519,39.4716992 171.823411,43.96 C172.104496,45.46 172.887519,46.94 174.373256,47.22 Z" id="Shape"></path>
                        <path d="M193.125659,49.22 C193.667752,49.32 193.888605,49.38 193.888605,49.6 C193.888605,49.82 193.667752,49.98 192.944961,49.98 L182.906202,49.98 C182.243643,49.98 181.962558,49.98 181.962558,49.6 C181.962558,49.22 182.183411,49.32 182.785736,49.22 C184.255287,48.8238836 185.291069,47.5158746 185.335581,46 C185.718064,41.3971302 185.832028,36.776026 185.676899,32.16 C185.676899,31.82 185.335581,31.82 183.669147,31.82 C183.066822,31.82 182.785736,31.54 182.785736,31.28 C182.785736,31.02 183.006589,30.84 183.448295,30.68 C185.094651,30.24 185.656822,29.14 185.656822,27.32 C185.656822,21.32 185.877674,18.36 187.263023,15.9 C188.978284,12.8519304 192.249311,11.0031944 195.755814,11.1 C197.904109,11.1 200.935814,11.86 200.935814,13.46 C200.935814,14 199.168992,16.82 198.345814,16.82 C197.843876,16.82 197.843876,16.32 197.582868,15.34 C197.37667,13.816281 196.147201,12.6329349 194.611395,12.48 C192.965039,12.48 191.519457,13.64 190.796667,16.66 C190.145563,20.8735922 189.923583,25.1419431 190.134109,29.4 C190.134109,29.74 191.840698,29.74 192.402868,29.74 C193.770866,29.8859285 195.153561,29.6793252 196.418372,29.14 C196.578992,29.14 196.639225,29.14 196.639225,29.36 C196.364583,30.489999 195.835974,31.5431357 195.093256,32.44 C194.056968,32.1363153 192.981064,31.9880228 191.90093,32 C190.515581,32 190.134109,32 190.134109,32.44 C189.927237,36.9512455 190.074922,41.4716992 190.575814,45.96 C190.856899,47.46 191.619845,48.94 193.125659,49.22 Z" id="Shape"></path>
                        <path d="M209.70969,29.24 C209.596911,33.4597499 209.76459,37.6823093 210.211628,41.88 C210.492713,43.48 211.255659,44.96 212.741395,45.24 C213.343721,45.34 213.564574,45.4 213.564574,45.62 C213.564574,45.84 213.283488,46 212.62093,46 L202.582171,46 C201.85938,46 201.598372,46 201.598372,45.62 C201.598372,45.24 201.819225,45.34 202.42155,45.24 C203.907287,44.96 204.630078,43.48 204.911163,41.88 C205.442936,37.6887951 205.644327,33.4625365 205.513488,29.24 C205.513488,19.74 205.513488,16.12 205.292636,13.48 C205.172171,12.32 205.071783,10.56 203.525814,10.56 C203.244729,10.56 203.023876,10.56 203.023876,10.28 C206.147464,8.61906921 209.549712,7.54133171 213.062636,7.1 C213.564574,7.1 213.785426,7.1 213.785426,7.38 C213.785426,7.66 213.624806,7.72 213.183101,7.82 C210.974574,8.26 210.312016,10.46 210.091163,12.54 C209.87031,14.62 209.70969,19.74 209.70969,29.24 Z" id="Shape"></path>
                        <path d="M235.730155,38.36 C236.01124,38.36 236.232093,38.48 236.232093,38.64 C236.231869,38.8300905 236.151779,39.0114094 236.01124,39.14 C233.745436,41.3776672 230.645999,42.5735183 227.458217,42.44 C220.290543,42.44 217.539922,38.04 217.539922,32.34 C217.539922,25.58 220.852713,21.3 227.458217,21.3 C233.240543,21.3 235.669922,25.14 235.730155,28.38 C235.730155,29.2 235.730155,30.14 234.465271,30.14 L222.41876,30.14 C222.347088,32.2246595 222.625305,34.3066117 223.241938,36.3 C224.093175,38.6983675 226.370164,40.3013336 228.923876,40.3 C231.329635,40.2966746 233.686754,39.6248227 235.730155,38.36 Z M222.33845,28.36 L231.433566,28.36 C231.433566,26.36 230.489922,22.6 227.016512,22.6 C223.543101,22.6 222.33845,26 222.33845,28.3 L222.33845,28.36 Z" id="Shape"></path>
                        <path d="M251.892558,35.22 C252.434651,35.32 252.655504,35.38 252.655504,35.6 C252.655504,35.82 252.374419,35.98 251.71186,35.98 L241.673101,35.98 C241.010543,35.98 240.729457,35.98 240.729457,35.6 C240.729457,35.22 240.95031,35.32 241.552636,35.22 C243.038372,34.94 243.761163,33.46 244.042248,31.86 C244.337124,29.8740936 244.464727,27.8670968 244.423721,25.86 C244.423721,24.1 244.423721,22.02 244.202868,19.6 C244.193778,18.1803028 243.257891,16.931867 241.893953,16.52 C241.131008,16.3 241.010543,16.24 241.010543,16.02 C241.010543,15.8 241.231395,15.58 242.335659,15.58 L248.519535,15.58 C248.901008,15.58 248.901008,15.8 248.901008,16.12 C248.901008,16.44 248.619922,20.74 248.619922,20.74 C250.487132,17.12 253.297984,15.2 255.125039,15.2 C256.550543,15.2 257.554419,15.8 257.554419,17.5 C257.554419,19.2 256.671008,21.08 256.128915,21.08 C255.586822,21.08 255.626977,20.86 255.586822,20.42 C255.365969,18.88 254.763643,18.16 253.57907,18.16 C250.82845,18.16 249.061628,22.94 249.061628,27.12 C249.019215,28.6984526 249.113257,30.277613 249.342713,31.84 C249.623798,33.46 250.346589,34.94 251.892558,35.22 Z" id="Shape"></path>
                    </g>
                </g>
            </g>
        </g>
    </g>
</svg>