<?xml version="1.0" encoding="UTF-8"?>
<svg width="16px" height="16px" viewBox="0 0 16 16" version="1.1" xmlns="http://www.w3.org/2000/svg" xmlns:xlink="http://www.w3.org/1999/xlink">
    <!-- Generator: Sketch 50.2 (55047) - http://www.bohemiancoding.com/sketch -->
    <title>001-external</title>
    <desc>Created with Sketch.</desc>
    <defs></defs>
    <g id="Symbols" stroke="none" stroke-width="1" fill="none" fill-rule="evenodd">
        <g id="Header---Teal" transform="translate(-1274.000000, -32.000000)" fill="#FFFFFF" fill-rule="nonzero">
            <g id="Header">
                <g id="Stacked-Group" transform="translate(701.000000, 30.000000)">
                    <g id="Group" transform="translate(444.000000, 0.000000)">
                        <g id="001-external" transform="translate(129.000000, 2.000000)">
                            <path d="M15.2530826,0 L10.5192861,0 C10.1067387,0 9.77236871,0.340236874 9.77236871,0.760022801 C9.77236871,1.17980873 10.1067387,1.5200456 10.5192861,1.5200456 L13.449858,1.5200456 L6.28775007,8.80781979 C5.99603733,9.10465092 5.99603733,9.5858298 6.28775007,9.88266092 C6.43364794,10.0310343 6.6247758,10.1052632 6.81590366,10.1052632 C7.00703153,10.1052632 7.19815939,10.0310343 7.34405726,9.88266092 L14.5061652,2.59488674 L14.5061652,5.57696286 C14.5061652,5.99674879 14.8405352,6.33698567 15.2530826,6.33698567 C15.66563,6.33698567 16,5.99674879 16,5.57696286 L16,0.760107248 C16,0.340236874 15.66563,0 15.2530826,0 Z" id="Shape"></path>
                            <path d="M12.2269751,6.35943682 C11.8190537,6.35943682 11.488433,6.69585787 11.488433,7.11093582 L11.488433,14.497002 L1.47708424,14.497002 L1.47708424,4.31001555 L9.17252903,4.31001555 C9.58045046,4.31001555 9.91107115,3.97359449 9.91107115,3.55851654 C9.91107115,3.1434386 9.58045046,2.80701754 9.17252903,2.80701754 L0.738542121,2.80701754 C0.33062069,2.80701754 0,3.1434386 0,3.55851654 L0,15.248501 C0,15.6635789 0.33062069,16 0.738542121,16 L12.2269751,16 C12.6348966,16 12.9655172,15.6635789 12.9655172,15.248501 L12.9655172,7.11093582 C12.9655172,6.69585787 12.6348966,6.35943682 12.2269751,6.35943682 Z" id="Shape"></path>
                        </g>
                    </g>
                </g>
            </g>
        </g>
    </g>
</svg>