<svg xmlns="http://www.w3.org/2000/svg" viewBox="0 0 220.99 217.76"><defs><style>.cls-1{fill:#ccc;}.cls-2{fill:#131010;}.cls-3{fill:#884a36;}.cls-4{fill:red;}.cls-5{fill:none;}</style></defs><title>Icon Niffler</title><g id="Layer_2" data-name="Layer 2"><g id="Vector_Niffler" data-name="Vector Niffler"><g id="Niffler_Mascot" data-name="Niffler Mascot"><circle class="cls-1" cx="106.3" cy="106.3" r="106.3"/><path id="Back_Arm" data-name="Back Arm" class="cls-2" d="M169.05,164.51a27,27,0,0,0-5.68,2.51s.2,3.82,7.31,8.58c-5.6,1.61-12.61,0-20.59,0a96,96,0,0,1-14.78-1.43c-19.19-3-20.86-2.9-26.89-10.77C91.2,140.9,92.16,124,101.79,115.21s26.79-6.26,38,6c5.32,5.81,8.24,11.62,9,18.24,10.09.94,26.05,10.43,26.05,10.43a16.71,16.71,0,0,0-9.14,4,13.3,13.3,0,0,0-2.15,2.52,55.76,55.76,0,0,0,5.17,4.48c1.09.85,2.36,1.8,3.8,2.83A25.25,25.25,0,0,0,169.05,164.51Z"/><path class="cls-2" d="M157.6,199.68l-.2-.15c-.84.46-1.69.92-2.55,1.35Q152.7,202,150.5,203A105.54,105.54,0,0,1,118,212c-.45.06-.89.1-1.34.14q-1.47.15-2.94.24-3.66.25-7.38.26a105.72,105.72,0,0,1-57.64-17A106.23,106.23,0,0,1,56.09,185q1.3-1.65,2.64-3.18a86,86,0,0,1,7.46-7.63c.69-.62,1.38-1.22,2.08-1.8,12.72-10.67,25.57-14.5,35.49-15.59a58.12,58.12,0,0,1,14.85.19,29.1,29.1,0,0,1,3.13.61l1.09.28h0a49.76,49.76,0,0,1,6.28,2.15c.45.18.89.38,1.32.58q1.92.87,3.69,1.89a42.82,42.82,0,0,1,5.81,4,43.88,43.88,0,0,1,8.37,9.11c.29.41.56.82.83,1.23A54.42,54.42,0,0,1,155,189a66.76,66.76,0,0,1,2.08,7.66c.19.93.36,1.86.52,2.79A2,2,0,0,0,157.6,199.68Z"/><path class="cls-2" d="M150.63,194.34c0,.59,0,1.18,0,1.76,0,2.3,0,4.61-.15,6.9A105.54,105.54,0,0,1,118,212c-.45.06-.89.1-1.34.14q-1.47.15-2.94.24-3.66.25-7.38.26a105.72,105.72,0,0,1-57.64-17,99.46,99.46,0,0,1-8.88-6.41c-.5-.39-1-.8-1.5-1.22A106.2,106.2,0,0,1,3.17,132.11c4.66-5.37,15.19-14.81,39-30.1a15.74,15.74,0,0,0,7-16.23c-1.24-6.48-2.33-14.5-1.58-20.26a49.7,49.7,0,0,1,11.34-26C60.29,37.8,58,22.28,68,16.36A.67.67,0,0,1,69,17c-.45,3.71-.57,7.17,2.83,10.23a.67.67,0,0,0,1.11-.61A14,14,0,0,1,82.17,11.2a.68.68,0,0,1,.92.67c-.58,8.92,1.72,11.3,3.47,10.91,2.21-.5,32.48-10,49.71,9,4.18,4.58,7.59,10.84,9.65,19.3,7.71,31.7,19.27-.22,4.13,35.94l-1,2.34-3,7.21h0c-1.79,4.37-3.83,9.41-6.14,15.22a20.69,20.69,0,0,0-1.13,7.86h0c0,.18,0,.37,0,.56a84.56,84.56,0,0,0,1.65,13c1.36,7.27,3.37,15.61,5.25,24.55.3,1.42.59,2.86.88,4.32.2,1,.4,2,.59,3,.65,3.45,1.25,7,1.77,10.52.06.41.11.81.17,1.21A153.24,153.24,0,0,1,150.63,194.34Z"/><g id="Bill"><path class="cls-3" d="M193.68,58c2.48,16.41-6.59,21.14-6.59,21.14,2.72,6.18,1.79,9.63-3.94,15.24-4.81,4.71-13.06,8.72-30.38,1.35-8.41-3.58-21.33,16.87-36.51,11.58-3.53-1.23-13.6-10.07-13.83-19.39a4.52,4.52,0,0,1,2-3.9c5.8-3.84,19.92-3.34,18.09-20.44-1-9.54,15.76,1.22,21.61-9.05,1.07-1.88.55-5,1.76-3.45,2.79,3.49,13.4,5.11,19.8,1.19,2.48-1.52,3.17-3.25,5.33-4.82a15,15,0,0,1,11.79-2.52C185.86,45.81,192.27,48.65,193.68,58Z"/></g><g id="Glasses"><path id="path2830" class="cls-4" d="M140.11,32.16c-.65-1-2.61-.79-3.74-.46l-.1,0A28.77,28.77,0,0,0,119,44.08c-1.1,1.72-1.25,3.42-5.55,2.81-8.44-1.19-17,2.17-22.24,10.94a2.6,2.6,0,0,0-.58,2.2l.05.14c.28.81.67,1.88,1.18,3.08C93.88,68,97.8,74.86,104.37,75a14.62,14.62,0,0,0,9.38-3.45c3.85-3,4.39-7.94,4.15-13.13-.15-2.08-1-4.12-.88-6.16.07-1.21.86-1.92,2.34-1.91s2.24.8,3,1.76c2.73,3.41,6.19,6.71,10.19,7.09.36.06.68.11,1,.15h0c8.47,1,11.2-4.72,12.32-8.33.18-.58.32-1.1.43-1.53C147.67,44.45,142.48,35.77,140.11,32.16ZM107.16,71.71C99.32,74,95,63.29,93.94,60.59c1.42-5,17.33-14.52,20.1-6.74C117.24,66.1,112.34,70.12,107.16,71.71Zm16.46-23c-3.15-4.13,7.74-12.22,13.71-13.27,0,0,11.28,11.78,2.94,19.13C133.51,60.51,125,50.46,123.62,48.7Z"/><rect class="cls-4" x="65.19" y="59.95" width="28.41" height="3.05" rx="1.53" ry="1.53" transform="matrix(1, 0.02, -0.02, 1, 1.19, -1.51)"/></g></g><path class="cls-5" d="M212.59,106.3a106,106,0,0,1-3.89,28.57,106.1,106.1,0,0,1-21.9,40.84,106.12,106.12,0,0,1-16.71,15.62c-.93.7-1.87,1.39-2.82,2q-1.8,1.26-3.65,2.45-3,1.9-6.06,3.61l-.16.09c-.84.46-1.69.92-2.55,1.35Q152.7,202,150.5,203A105.54,105.54,0,0,1,118,212c-.45.06-.89.1-1.34.14q-1.47.15-2.94.24-3.66.25-7.38.26a105.72,105.72,0,0,1-57.64-17,99.46,99.46,0,0,1-8.88-6.41c-.5-.39-1-.8-1.5-1.22A106.3,106.3,0,1,1,212.59,106.3Z"/><g id="Arm_and_Ruby" data-name="Arm and Ruby"><g id="Ruby"><polygon class="cls-4" points="220.99 150.87 181.18 217.76 157.6 199.68 157.4 199.53 154.98 197.67 153.46 196.5 150.63 194.34 130.32 178.77 126.39 175.75 125.5 175.07 121.21 171.78 119.41 170.4 128.96 135.39 164.05 128.64 198.78 121.96 220.99 150.87"/></g><path id="Hand" class="cls-3" d="M173.37,162.17a1,1,0,0,1,.9,1.73,15.15,15.15,0,0,1-12.73,5.63c-.66,0-.58.86-.07,1.27,1,.79,7.75,1.14,14.48-2.08a.77.77,0,0,1,1.08.91c-2.4,8.12-13.89,8.3-15.47,8.46a.66.66,0,0,0-.15,1.29c4.37,1.48,11.85-.17,13.92-1a1.26,1.26,0,0,1,1.51,1.86c-5.63,8.43-15.55,6.55-19.33,6a.5.5,0,0,0-.35.91c1.9,1.29,7,3.53,11.15,3a1.71,1.71,0,0,1,1.33,3c-2.55,2.41-12.4,5.36-22.56,2-11.3-3.68-28.37-18.31-28.37-18.31-.25-.1-.41,2-.42,1.73-.1-3-.65-21,.59-22.32s13.39,2.18,14.08,2.38H133C144.9,163.62,164,163.4,173.37,162.17Z"/><path id="Front_Arm" data-name="Front Arm" class="cls-2" d="M129.61,174.52a27,27,0,0,0-5.68,2.51s0,5.25,7.11,10c-13.3,4.23-54.61-2.7-62.07-13.65C53,150,52.73,134,62.35,125.22s26.79-6.26,38,6c4,4.41,7.86,9.4,9.22,14.17.78,2.73,1.82,4.25,4.58,4.92,9.66,2.36,21.22,8.34,21.22,8.34-3.68.52-6.79,3-9.14,5.19a13.3,13.3,0,0,0-2.15,2.52,55.76,55.76,0,0,0,5.17,4.48c1.09.85,2.36,1.8,3.8,2.83A25.25,25.25,0,0,0,129.61,174.52Z"/></g></g></g></svg>