<svg xmlns="http://www.w3.org/2000/svg" viewBox="0 0 522.84 541.23"><defs><style>.cls-1{fill:#131010;}.cls-2{fill:#884a36;}.cls-3{fill:#fff;}.cls-4{fill:#070606;stroke:#000;stroke-miterlimit:10;}.cls-5{fill:#fa4142;}.cls-6{fill:red;}.cls-7{fill:#b80000;}.cls-8{fill:#4c1f16;}</style></defs><title>Mascot Niffler_1</title><g id="Layer_2" data-name="Layer 2"><g id="Vector_Niffler" data-name="Vector Niffler"><g id="Niffler_Mascot" data-name="Niffler Mascot"><path id="Back_Arm" data-name="Back Arm" class="cls-1" d="M433.33,264.3a46.49,46.49,0,0,0-9.79,4.32s.35,6.58,12.59,14.78c-9.65,2.78-21.73,0-35.48,0a165.42,165.42,0,0,1-25.48-2.47c-33.08-5.21-36-5-46.35-18.57-29.67-38.74-28-67.83-11.41-83,16.83-15.42,46.17-10.79,65.52,10.34,9.17,10,14.21,20,15.45,31.43,17.39,1.62,44.9,18,44.9,18-6.35.9-11.7,3.12-15.75,6.82a22.91,22.91,0,0,0-3.71,4.34,96.1,96.1,0,0,0,8.91,7.72c1.88,1.47,4.06,3.11,6.55,4.88A43.52,43.52,0,0,0,433.33,264.3Z"/><path id="Back_Leg" data-name="Back Leg" class="cls-1" d="M410,383c-17.12,49.78-41.53,95.44-92,89.64C197,458.76,199,362.72,224.43,320.23c52.78-88.32,127.37-67.9,127.37-67.9C418.91,268.89,421.76,348.72,410,383Z"/><path id="Back_Foot" data-name="Back Foot" class="cls-2" d="M376.19,445.09C404,460.81,420,473.51,465.38,478.63c3.72.42,3.31,6.13-1.78,7.77-4.24,1.36-12.93,2-16.69,1.85-2.61-.11-5.26,1.55-1.39,2.28,2.92.55,10.32.83,11.71,1.44,2.56,1.12,1.68,4.05-.93,5.06-5.45,2.1-11,2.57-14.78,3.27-33.47,6.12-111-5.77-123.56-14.4-5-3.46-5.42-10.68-5.43-12.64a.7.7,0,0,1,.47-.67c2.67-.94,16.23-5.53,22.93-4.54a.71.71,0,0,0,.81-.87A10.4,10.4,0,0,1,337.9,459a.7.7,0,0,1,.75-.29,21.36,21.36,0,0,1,10,6,.72.72,0,0,0,1.19-.31c1.12-3.85,1.89-7.55-.06-10.62a.73.73,0,0,1,.48-1.11,10.14,10.14,0,0,1,10,4.12.71.71,0,0,0,1.25-.24,10.56,10.56,0,0,0-.66-7.65.71.71,0,0,1,.8-1c7.87,1.58,12.62-1.7,13.8-2.65A.63.63,0,0,1,376.19,445.09Z"/><path id="Tail" class="cls-1" d="M129.52,432.5c-32.42,4.42-69-36.93-70.46-57.78a1.19,1.19,0,0,0-2.21-.5,31,31,0,0,0-4.44,14.84,1.19,1.19,0,0,1-2.06.78c-12.91-13.92-25.89-43.15-29.24-59.39a1.2,1.2,0,0,0-2.21-.37c-7,12.31-7.29,22.61-2.64,38.25a1.19,1.19,0,0,1-1.49,1.48,32.53,32.53,0,0,1-11-5.8,1.19,1.19,0,0,0-1.94,1.11c1.42,9.22,2.58,13,9.71,18.84a1.2,1.2,0,0,1-.33,2.05c-2.39.87-6.54,2-9.6.91A1.2,1.2,0,0,0,0,388.25c1.85,9.93,1.65,12.52,12.85,22.33a1.19,1.19,0,0,1-.09,1.87c-1.71,1.21-5.31,2.9-10.45.83a1.19,1.19,0,0,0-1.55,1.55C8.57,434.4,41.14,470.18,101.93,484c3.22.73-6.63,2.39-17.4,2.69a1.2,1.2,0,0,0-.64,2.19c21,14.36,87.36,10.15,112.63,7.61a1.19,1.19,0,0,0,1-.71c6-13.82-61.55-59.37-67.17-63.13A1.17,1.17,0,0,0,129.52,432.5Z"/><path id="Butt_Shadow" data-name="Butt Shadow" d="M196.52,496.52c-33,3.79-69.55-32.05-74.74-63.8C117.84,408.57,196.52,496.52,196.52,496.52Z"/><path id="Body_Shadow" data-name="Body Shadow" d="M312.53,473.25c165.06-79.76,68.69-286.37,68.69-286.37Z"/><path id="Body" class="cls-1" d="M395.54,364.75c-25.9,84.43-81.7,124.06-162.92,124.06-89.64,0-127.12-61.32-131.21-124.06-2.51-38.43,5.63-70.13,15.32-86.22a1.15,1.15,0,0,0-.46-1.63c-2.11-1.06-7.32-2.11-14.83,6.88a1.17,1.17,0,0,1-2.06-.51c-3.69-20,12.92-31.74,18.9-35.25a1.16,1.16,0,0,0-.23-2.1c-3.33-1-9.81-1.69-16.43,5.1a1.17,1.17,0,0,1-2-1.06c5.52-24.54,25.87-29.82,35.83-30.93a10.27,10.27,0,0,0,7.55-4.77c4.64-7.36,20.11-24.57,71.58-57.66a27.16,27.16,0,0,0,12-28c-2.15-11.15-4-25-2.73-34.91a85.73,85.73,0,0,1,19.54-44.83c2.5-3-1.39-29.71,15.74-39.91a1.17,1.17,0,0,1,1.74,1.16c-.77,6.4-1,12.36,4.88,17.64a1.15,1.15,0,0,0,1.91-1.05c-1.51-9.31,2.5-21.57,15.94-26.64a1.18,1.18,0,0,1,1.59,1.17c-1,15.37,3,19.47,6,18.79,4.73-1.06,84.12-26,102.29,48.7C409,132.57,433.6,46.65,383.17,173.37,371.37,203,417.69,292.53,395.54,364.75Z"/><path id="Front_Leg" data-name="Front Leg" d="M347,384.74c-5.42,41-25.32,64.18-52.08,94.6-16.94,19.25-29,24.18-53.06,21.5C121,487.42,125.4,396.17,148.35,353.74c17.13-31.67,62.34-55.9,102.3-60.82C297.76,287.12,356.82,310.43,347,384.74Z"/><path id="Front_Leg-2" data-name="Front Leg" class="cls-1" d="M339.11,399.43c-10.35,46.78-35.76,48.47-44.31,85.39-5.78,25-35.84,22.7-59.94,20C114,491.42,118.4,400.17,141.35,357.74c17.13-31.67,64.49-54.35,104.46-59.27C292.92,292.67,356.86,319.24,339.11,399.43Z"/><path id="Front_Foot" data-name="Front Foot" class="cls-2" d="M375.54,522c5.75.81,2.47,6.81-3,8.62-13.53,4.45-28.8,3.75-51.32-3.15-1.06-.33-2.47.5-.4,2,2.46,1.83,3.7,1.17,8.44,4,1.42.84,4.87,5.78-3.78,6.3-25.14,1.51-49.27-9.51-49.27-9.51-2.34-1.46-4.36.17-.84,1.41,16.88,6,11.72,10.81-1.4,9.28-8.45-1-10.56-2.59-23.95-5.81-10.51-2.53-27.85-8.31-38.43-15.81-7.59-5.38-5.78-19.62-4.74-24.3a1.05,1.05,0,0,1,1.32-.79c2.06.6,6.8,2,11.45,3.79a1.07,1.07,0,0,0,1.44-.95c.43-5.57,8.25-13.9,10.37-16.07a1,1,0,0,1,1.22-.2,36.2,36.2,0,0,1,10.78,8.37,1.05,1.05,0,0,0,1.7-.14c2.34-3.83,7.69-8.4,7.07-11.76a1.09,1.09,0,0,1,1.15-1.23c6.24.25,12.41,8,14.49,10.88a1.05,1.05,0,0,0,1.65.07c1.43-1.66,3.94-5.19,3.31-8.89-.14-.85.87-1.71,1.53-1.15A199.2,199.2,0,0,0,375.54,522Z"/><g id="Left_Eye" data-name="Left Eye"><ellipse class="cls-3" cx="326.04" cy="87.15" rx="10.07" ry="12.69" transform="translate(7.45 198.5) rotate(-34.23)"/><circle class="cls-4" cx="328.93" cy="91.39" r="7.43" transform="translate(105.95 349.89) rotate(-64.75)"/><circle class="cls-3" cx="323.06" cy="91.28" r="1.23" transform="matrix(0.49, -0.87, 0.87, 0.49, 85.43, 328.41)"/></g><g id="Right_Eye" data-name="Right Eye"><ellipse class="cls-3" cx="372.25" cy="63.52" rx="10.35" ry="13.04" transform="translate(12.88 179.52) rotate(-27.57)"/><circle class="cls-4" cx="374.68" cy="68.19" r="7.63" transform="translate(118.75 350.2) rotate(-58.09)"/><circle class="cls-3" cx="368.71" cy="67.37" r="1.26" transform="translate(97.75 326.35) rotate(-54.06)"/></g><path id="Front_Arm_Shadow_" data-name="Front Arm Shadow\" d="M374.29,285.78a50.15,50.15,0,0,0-10.56,4.66s-1.62,6,11.58,14.85c-29.81,19.23-101.52,0-117.44-21.83-34.55-47.38-19.4-72.42-5.26-81.39,24.23-15.38,46.58-22.94,67.45-.15,5.3,5.79,14.67,24.15,15,25.27a14.72,14.72,0,0,0,10.67,10.24c18,4.39,39.46,15.51,39.46,15.51-6.85,1-12.77,9-17.14,13a24.72,24.72,0,0,0-4,4.68,103.68,103.68,0,0,0,9.61,8.33c2,1.59,4.38,3.36,7.07,5.26A47,47,0,0,0,374.29,285.78Z"/><g id="Ruby"><polygon class="cls-5" points="347.78 274.45 364.23 214.11 401.76 264.08 347.78 274.45"/><polygon class="cls-6" points="424.71 202.48 364.23 214.11 401.76 264.08 424.71 202.48"/><polygon class="cls-7" points="468.25 251.29 401.76 264.08 424.71 202.48 468.25 251.29"/><polygon class="cls-6" points="484.57 190.97 468.25 251.29 424.71 202.48 484.57 190.97"/><polygon class="cls-5" points="522.84 240.8 468.25 251.29 484.57 190.97 522.84 240.8"/><polygon class="cls-7" points="454.24 356.07 522.84 240.8 468.25 251.29 454.24 356.07"/><polygon class="cls-6" points="454.24 356.07 468.25 251.29 401.76 264.08 454.24 356.07"/><polygon class="cls-7" points="454.24 356.07 401.76 264.08 347.78 274.45 454.24 356.07"/></g><path id="Hand" class="cls-2" d="M440.77,260.27a1.79,1.79,0,0,1,1.55,3c-5.6,6.39-12.57,10.15-21.95,9.7-1.13-.05-1,1.48-.12,2.19,1.69,1.36,13.35,2,25-3.58a1.34,1.34,0,0,1,1.87,1.56c-4.14,14-23.94,14.31-26.66,14.58a1.15,1.15,0,0,0-.25,2.23c7.52,2.56,20.43-.29,24-1.71a2.17,2.17,0,0,1,2.61,3.2C437,306,419.95,302.72,413.44,301.83a.86.86,0,0,0-.6,1.56c3.28,2.23,12.07,6.08,19.21,5.15a3,3,0,0,1,2.3,5.09c-4.39,4.16-21.37,9.24-38.89,3.53-19.47-6.35-48.89-31.56-48.89-31.56-.43-.17-.71,3.43-.73,3-.17-5.22-1.11-36.15,1-38.46s23.08,3.75,24.27,4.11l.11,0C391.71,262.77,424.64,262.4,440.77,260.27Z"/><path id="Front_Arm" data-name="Front Arm" class="cls-1" d="M365.36,281.56a46.49,46.49,0,0,0-9.79,4.32s0,9,12.26,17.25c-22.92,7.29-94.12-4.65-107-23.52-27.49-40.32-28-67.83-11.41-83,16.83-15.42,46.17-10.79,65.52,10.34,7,7.6,13.54,16.21,15.89,24.42,1.34,4.71,3.13,7.32,7.89,8.49,16.65,4.07,36.57,14.38,36.57,14.38-6.35.9-11.7,5.24-15.75,8.94a22.91,22.91,0,0,0-3.71,4.34,96.1,96.1,0,0,0,8.91,7.72c1.88,1.47,4.06,3.11,6.55,4.88A43.52,43.52,0,0,0,365.36,281.56Z"/><g id="Bill"><path class="cls-2" d="M475.77,80.66c4.27,28.28-11.35,36.44-11.35,36.44,4.68,10.65,3.09,16.6-6.78,26.26-8.29,8.11-22.51,15-52.36,2.33-14.5-6.16-36.76,29.07-62.92,20-6.09-2.12-23.44-17.36-23.83-33.41a7.79,7.79,0,0,1,3.49-6.73c10-6.62,34.34-5.75,31.17-35.22-1.77-16.45,27.16,2.11,37.24-15.6,1.85-3.24.95-8.56,3-5.95,4.8,6,23.09,8.81,34.12,2.06,4.27-2.62,5.47-5.6,9.18-8.3,7.66-5.58,16.86-5.4,20.32-4.34C462.3,59.74,473.35,64.62,475.77,80.66Z"/><ellipse class="cls-8" cx="423.5" cy="100.81" rx="10.97" ry="3.16" transform="translate(-11.51 117.65) rotate(-15.61)"/><ellipse class="cls-8" cx="451.02" cy="73.69" rx="2.68" ry="9.88" transform="translate(-4.98 103.86) rotate(-13.07)"/><path class="cls-8" d="M462.89,118c4.47-4.46,2.41.83-.36,4.41-8.37,10.83-24.91,23-48.75,14.24-19.78-7.23-35.4,6.43-50.83,8.35-11,1.37-28.61-2.53-32.45-8.82-2.66-4.36-1.25-3.87,2.58-.79,6.64,5.34,23.67,7.8,33.81,4.87,21.86-6.32,27.11-13.57,47.89-7C440.54,141.35,451.48,129.38,462.89,118Z"/></g><g id="Glasses"><path id="path2830" class="cls-6" d="M347.08,56.75c-1.9,3-2.17,5.89-9.58,4.85-14.53-2.06-29.36,3.73-38.33,18.85-.73,1.23-1.48,2.43-1,3.78,2.36,6.75,9.36,25.49,23.69,25.83,5.88.24,11.52-2.33,16.17-5.95,6.63-5.15,7.56-13.69,7.15-22.64-.26-3.58-1.73-7.09-1.52-10.61.12-2.09,1.48-3.31,4-3.29s3.86,1.37,5.19,3c4.71,5.87,10.66,11.56,17.56,12.22,18.45,3.3,22.29-11.15,23.75-16.75,2.27-8.7-6.67-23.66-10.75-29.88-1.12-1.7-4.49-1.36-6.44-.79C370.76,37.23,357,41.32,347.08,56.75Zm-8.56,16.83c5.52,21.12-2.92,28-11.86,30.78-13.5,3.87-20.91-14.51-22.77-19.16C306.33,76.53,333.74,60.18,338.52,73.58Zm40.14-31.75s19.44,20.32,5.07,33C372.09,85.06,357.35,67.74,355,64.71,349.6,57.6,368.38,43.66,378.66,41.83Z"/><rect class="cls-6" x="254.33" y="84.11" width="48.96" height="5.26" rx="2.63" ry="2.63" transform="translate(1.71 -5.32) rotate(1.1)"/></g></g></g></g></svg>